<svg xmlns="http://www.w3.org/2000/svg" viewBox="0 0 210.82 311.17"><defs><style>.cls-1{fill:#fff;}</style></defs><g id="Layer_2" data-name="Layer 2"><g id="Layer_1-2" data-name="Layer 1"><path class="cls-1" d="M105.69,152a540.91,540.91,0,0,1-58.19-2.62,185.65,185.65,0,0,1-23.2-3.54A31.47,31.47,0,0,1,19.8,86c2.52-1,2.89-2.31,2.9-4.66C23,38.79,55,10.43,83,2.94,129-9.39,175.62,18.19,186.28,64.39a77.24,77.24,0,0,1,1.91,18.26,2.55,2.55,0,0,0,2,2.91c13.72,5.14,21.77,18.19,20.51,33-1.13,13.46-12.23,25.2-26.11,27.76-17.29,3.19-34.77,4.45-52.31,5.2C123.41,151.94,114.55,152,105.69,152Z"/><path class="cls-1" d="M105.32,280.61c2.71-6.92,5.23-13.3,7.72-19.68q17.2-44.07,34.37-88.17a3.22,3.22,0,0,1,3.29-2.44c8.83-.49,17.61-1.62,26.83-2.86-1.8,4.69-3.47,9.07-5.18,13.44q-22.78,58.33-45.55,116.66c-3.25,8.33-9.72,12.32-18.1,13.36-7.55.95-14.58-.71-20.34-6.15a15.93,15.93,0,0,1-4-5.85q-25.11-64.4-50.25-128.79c-.31-.78-.58-1.57-1-2.64,4.3.52,8.33,1,12.37,1.48,4.57.5,9.14,1.11,13.72,1.28,2.35.08,3.39.89,4.21,3q18,46.49,36.23,92.92C101.48,270.81,103.29,275.43,105.32,280.61Z"/></g></g></svg>