<svg xmlns="http://www.w3.org/2000/svg" width="682.667" height="682.667" preserveAspectRatio="xMidYMid meet" version="1.0" viewBox="0 0 512 512"><g fill="#000" stroke="none"><path d="M2325 5109 c-679 -65 -1307 -399 -1742 -926 -394 -478 -603 -1094 -579 -1708 20 -535 191 -1022 509 -1449 103 -137 302 -346 432 -451 368 -299 822 -493 1305 -557 123 -16 509 -16 625 0 459 65 873 233 1230 501 122 92 341 304 440 426 299 368 493 822 557 1305 16 123 16 509 0 625 -65 462 -236 878 -505 1235 -94 123 -286 321 -414 427 -517 425 -1198 635 -1858 572z m222 -1595 c49 -24 83 -78 83 -134 0 -157 -208 -208 -281 -70 -69 128 65 266 198 204z m1206 -487 c93 -34 145 -67 214 -138 115 -116 157 -228 158 -419 0 -101 -4 -138 -22 -195 -67 -210 -241 -366 -445 -396 -144 -21 -272 19 -400 126 l-68 55 0 -295 0 -295 -120 0 -120 0 0 785 0 785 120 0 120 0 0 -102 0 -103 27 35 c72 93 169 160 263 180 69 14 200 3 273 -23z m-1703 -97 l0 -110 -322 -357 -323 -358 338 -3 337 -2 0 -105 0 -105 -485 0 -485 0 0 119 0 118 310 349 310 349 -290 3 -290 2 0 105 0 105 450 0 450 0 0 -110z m550 -465 l0 -575 -120 0 -120 0 0 575 0 575 120 0 120 0 0 -575z" transform="translate(0.000000,512.000000) scale(0.100000,-0.100000)"/><path d="M3450 2837 c-87 -24 -176 -100 -218 -184 -54 -107 -55 -261 -3 -368 40 -81 121 -157 192 -180 76 -26 197 -17 267 19 102 52 169 143 192 264 35 174 -53 359 -203 427 -65 30 -166 39 -227 22z" transform="translate(0.000000,512.000000) scale(0.100000,-0.100000)"/></g></svg>